<svg width="600" height="128" viewBox="0 0 600 128" fill="#000" xmlns="http://www.w3.org/2000/svg">
<path d="M120.8 29.6L122.4 26.4C124.9 21.6 126.9 18.7 128.6 17.8C130.2 16.8 132.2 16.3 134.3 16.3C136.9 16.3 138.3 16.9 138.5 18.1C138.7 19.3 137.7 22.1 135.6 26.4L133 31.3C146.1 33.2 158.9 35.1 171.1 37.2C174.9 29.6 177.3 24.2 178.3 20.9C179.5 17.1 178.8 13.5 176.3 10.2C173.9 7 169.7 4.59999 163.7 2.89999C157.8 1.29999 150.6 0.5 142.1 0.5C133.1 0.5 124.9 1.40001 117.3 3.10001C109.7 4.90001 103.1 7.3 97.5 10.5C91.9 13.7 87.7 17.3 85 21.2C84.3 22.2 83.5 23.5 82.7 24.8C95.7 26.3 108.4 27.9 120.8 29.6ZM92.7 97.6C101.6 97.6 109.9 96.7 117.5 95C125.1 93.3 131.7 90.8 137.3 87.6C142.9 84.3 147 80.8 149.8 76.9C152.5 73 156.3 66.4 161.1 57L169.2 41L169.3 40.8C157.2 38.5 144.5 36.3 131.6 34.2L113.8 69.1C111 74.6 108.8 78.1 107.3 79.5C105.7 81 103.6 81.7 100.7 81.7C97.9 81.7 96.5 81.1 96.4 79.8C96.3 78.5 97.6 75.2 100.4 69.8L119.5 32.3C107 30.4 94.2 28.6 81.6 26.9C79.5 30.6 76.9 35.3 74 41L65.9 57C61 66.6 58 73.3 56.8 77.2C55.6 81 56.2 84.6 58.7 87.8C61.1 91.1 65.3 93.5 71.2 95.1C77 96.8 84.2 97.6 92.7 97.6ZM204.8 53.2L204.6 95.4H240.8L256.6 64.4C238.5 56.1 209.6 48.7 176 42.1L148.8 95.5H183.3L204.8 53.2ZM234.9 50.5C244.1 52.9 252.4 55.5 259.7 58.2L288.2 2.3H253.8L232.4 44.2L230.6 2.39999H196.2L177.9 38.3C199.1 42.1 218.3 46.1 234.9 50.5ZM259.7 58.2L256.6 64.4C261.1 66.4 264.9 68.5 267.9 70.7C286.2 83.5 283.3 90.3 269.4 96.8C246 107.9 170 113.4 170 113.4C176.3 106.2 181.6 98.3 181.6 98.3C139.3 115.8 88.6 123.6 70.1 126.3C158.3 131.1 263.2 123.4 295.8 101.3C312.1 90.2 298.9 72.5 259.7 58.2ZM42.3 20.5L0 17.2C24.9 19.9 53.1 23.1 81.6 27L82.9 24.9L42.3 20.5ZM292.9 8C293.3 7.1 293.8 6.4 294.5 5.8C295.2 5.2 296 4.69999 296.8 4.39999C297.7 4.09999 298.6 3.89999 299.6 3.89999C300.6 3.89999 301.5 4.09999 302.4 4.39999C303.3 4.69999 304.1 5.2 304.7 5.8C305.4 6.4 305.9 7.2 306.3 8C306.7 8.9 306.9 9.89999 306.9 10.9C306.9 12 306.7 13 306.3 13.9C305.9 14.8 305.4 15.5 304.7 16.2C304 16.8 303.3 17.3 302.4 17.6C301.5 17.9 300.6 18.1 299.6 18.1C298.6 18.1 297.7 17.9 296.8 17.6C295.9 17.3 295.1 16.8 294.5 16.2C293.8 15.6 293.3 14.8 292.9 13.9C292.5 13 292.3 12 292.3 10.9C292.3 9.79999 292.5 8.8 292.9 8ZM294.6 13.2C294.9 13.9 295.3 14.5 295.7 15C296.2 15.5 296.8 15.9 297.4 16.2C298.1 16.5 298.8 16.6 299.5 16.6C300.2 16.6 300.9 16.5 301.6 16.2C302.3 15.9 302.8 15.5 303.3 15C303.8 14.5 304.2 13.9 304.5 13.2C304.8 12.5 304.9 11.8 304.9 10.9C304.9 10.1 304.8 9.30001 304.5 8.60001C304.2 7.90001 303.8 7.3 303.3 6.8C302.8 6.3 302.3 5.90001 301.6 5.60001C300.9 5.30001 300.3 5.2 299.5 5.2C298.8 5.2 298.1 5.30001 297.4 5.60001C296.7 5.90001 296.2 6.3 295.7 6.8C295.2 7.3 294.8 7.90001 294.6 8.60001C294.3 9.30001 294.2 9.99999 294.2 10.9C294.2 11.7 294.3 12.5 294.6 13.2ZM299.7 6.89999C300.7 6.89999 301.5 7.09999 302 7.39999C302.5 7.79999 302.8 8.4 302.8 9.2C302.8 9.6 302.7 9.90001 302.6 10.1C302.5 10.4 302.3 10.6 302.1 10.7C301.9 10.9 301.7 11 301.4 11.1C301.2 11.2 300.9 11.2 300.6 11.3L302.7 14.8H301L299.1 11.4H298.1V14.8H296.5V6.8H299.7V6.89999ZM299.7 10.2C300.2 10.2 300.5 10.1 300.8 10C301.1 9.9 301.2 9.60001 301.2 9.10001C301.2 8.90001 301.1 8.70001 301.1 8.60001C301 8.50001 300.9 8.4 300.7 8.3C300.5 8.2 300.4 8.2 300.2 8.2C300 8.2 299.8 8.2 299.6 8.2H298.3V10.3H299.7V10.2ZM352.4 39.6C351.5 40.8 348.9 43.8 347.3 44.7C346.1 45.4 344.4 46 342.7 46H332.1C330.4 46 328.7 45.4 327.5 44.7C326 43.8 323.3 40.8 322.4 39.6C321.5 38.3 321.2 36.7 321.2 35.3V14.3C321.2 12.8 321.5 11.2 322.4 9.89999C323.2 8.79999 325.9 5.79999 327.5 4.89999C328.7 4.19999 330.3 3.60001 332.1 3.60001H342.7C344.4 3.60001 346.1 4.19999 347.3 4.89999C348.8 5.79999 351.5 8.79999 352.4 9.89999C353.3 11.2 353.6 12.8 353.6 14.3V35.3C353.6 36.8 353.3 38.3 352.4 39.6ZM345.1 14.3C344.6 13.5 343.3 12.1 342.6 11.7H332.4C331.8 12.1 330.7 13.2 329.8 14.3V35.2C330.6 36.2 331.7 37.4 332.3 37.8H342.5C343.1 37.4 344.3 36.2 345.1 35.2V14.3ZM389 24.4C388.4 25.4 386.2 27.5 385.3 28.2C383.8 29.3 381.9 29.8 380.1 29.8H368.3V45.8H359.8V3.89999H380C381.7 3.89999 383.9 4.5 385.2 5.5C386.2 6.3 388.3 8.4 388.9 9.3C389.8 10.6 390.2 12.4 390.2 13.9V19.8C390.3 21.5 389.9 23 389 24.4ZM381.8 13.7C381.5 13.1 380.7 12.4 380 12H368.2V21.6H380C380.2 21.6 381.4 20.6 381.8 19.9V13.7ZM412.5 12V45.7H404V12H392.7V3.8H423.7V12H412.5ZM428.4 45.7V3.8H436.9V45.7H428.4ZM472.2 45.7V20.5C469.8 25.6 467.3 30.7 465 35.7H459.5L452.3 20.6V45.7H443.8V3.8H453L462.3 22.8C465.4 16.5 468.4 10 471.5 3.8H480.7V45.7H472.2ZM517.7 39.6C516.9 40.8 514.2 43.8 512.7 44.7C511.5 45.4 509.8 46 508.1 46H498.2C496.5 46 494.8 45.4 493.6 44.7C492.1 43.8 489.4 40.8 488.5 39.6C487.6 38.3 487.3 36.7 487.3 35.3V3.8H495.8V35.2C496.6 36.2 497.8 37.5 498.4 37.8H507.9C508.5 37.5 509.6 36.3 510.4 35.2V3.7H518.9V35.2C518.8 36.8 518.6 38.3 517.7 39.6ZM553.4 45.7V20.5C551 25.6 548.5 30.7 546.2 35.7H540.6L533.4 20.6V45.7H525V3.8H534.2L543.5 22.8C546.6 16.5 549.6 10 552.7 3.8H561.9V45.7H553.4ZM343.3 94.3L329.8 69.7V94.3H321.3V52.4H330L343.3 77.4V52.4H351.8V94.3H343.3ZM388.7 88.2C387.9 89.4 385.2 92.4 383.7 93.3C382.5 94 380.8 94.6 379.1 94.6H369.2C367.5 94.6 365.8 94 364.6 93.3C363.1 92.4 360.4 89.4 359.5 88.2C358.6 86.9 358.3 85.3 358.3 83.9V52.4H366.8V83.8C367.6 84.8 368.8 86.1 369.4 86.4H378.9C379.5 86.1 380.6 84.9 381.4 83.8V52.3H389.9V83.8C389.9 85.4 389.6 86.9 388.7 88.2ZM413.9 60.6V94.3H405.4V60.6H394.1V52.4H425.1V60.6H413.9ZM458.7 72.9C458.1 73.9 455.9 76 455 76.7C454.4 77.1 453.9 77.4 453.3 77.7C456.7 84 462.3 94.3 462.3 94.3H452.9L444.6 78.3H437.9V94.3H429.4V52.4H449.7C451.4 52.4 453.6 53 454.9 54C455.9 54.8 458 56.9 458.6 57.8C459.5 59.1 459.9 60.9 459.9 62.4V68.3C460 70.1 459.6 71.6 458.7 72.9ZM451.5 62.3C451.2 61.7 450.4 61 449.7 60.6H438V70.2H449.8C450 70.2 451.2 69.2 451.6 68.5V62.3H451.5ZM466.9 94.3V52.4H475.4V94.3H466.9ZM500 60.6V94.3H491.5V60.6H480.2V52.4H511.2V60.6H500ZM515.9 94.3V52.4H524.4V94.3H515.9ZM562.2 88.2C561.3 89.4 558.7 92.4 557.1 93.3C555.9 94 554.2 94.6 552.5 94.6H542C540.3 94.6 538.6 94 537.4 93.3C535.9 92.4 533.2 89.4 532.3 88.2C531.4 86.9 531.1 85.3 531.1 83.9V62.9C531.1 61.4 531.4 59.8 532.3 58.5C533.1 57.4 535.8 54.4 537.4 53.5C538.6 52.8 540.2 52.2 542 52.2H552.6C554.3 52.2 556 52.8 557.2 53.5C558.7 54.4 561.4 57.4 562.3 58.5C563.2 59.8 563.5 61.4 563.5 62.9V83.9C563.3 85.4 563.1 86.9 562.2 88.2ZM554.9 62.9C554.4 62.1 553.1 60.7 552.4 60.3H542.2C541.6 60.7 540.5 61.8 539.6 62.9V83.8C540.4 84.8 541.5 86 542.1 86.4H552.3C552.9 86 554.1 84.8 554.9 83.8V62.9ZM591.5 94.3L578 69.7V94.3H569.5V52.4H578.2L591.5 77.4V52.4H600V94.3H591.5Z" fill="black"/>
</svg>
